<svg viewBox="0 0 13 17" xmlns="http://www.w3.org/2000/svg"><path d="m1.492 15.487c-.988-.164-1.492-.746-1.492-1.715v-10.386c0-1.114.746-1.754 1.87-1.56l8.022 1.415c1.521.271 2.316.794 2.316 2.354v9.108c0 1.666-.901 2.519-2.422 2.247zm4.951-8.654 1.387 1.042c.05.037.052.115 0 .133l-1.648.658c-.05.021-.109.008-.155-.027l-1.648-1.238c-.051-.036-.052-.116 0-.134l1.386-.553v-1.561l-3.539 1.412v4.071l1.357-.542v-1.594c-.001-.057.066-.086.116-.047l1.648 1.239c.05.037.078.094.078.147v1.895c.001.057-.066.086-.116.047l-1.387-1.042-1.357.542 3.539 2.658 3.539-1.413-1.357-1.019-1.387.554c-.049.021-.118-.03-.116-.088v-1.895c0-.057.032-.102.078-.12l1.648-.658c.049-.021.118.029.116.087v1.595l1.357 1.019v-4.071l-3.539-2.658zm-2.8-5.85 5.174-.91c1.889-.33 3.003.474 3.003 2.151v.474c-.465-.261-1.036-.445-1.734-.571z"/></svg>
